<svg xmlns="http://www.w3.org/2000/svg" width="900" height="720" viewBox="0 0 900 720" role="img" aria-label="Montage Wokwi ESP32 avec capteur DHT22 sur GPIO 33">
  <rect width="900" height="720" fill="#d8d8d8"/>

  <g transform="translate(160 210)">
    <path d="M44 0h50l18 56v118H26V56L44 0z" fill="#f7f7f7" stroke="#9b9b9b" stroke-width="2"/>
    <circle cx="68" cy="18" r="11" fill="#ececec" stroke="#999"/>
    <g stroke="#b8b8b8" stroke-width="4" stroke-linecap="round">
      <path d="M43 58h14"/><path d="M63 58h14"/><path d="M83 58h14"/>
      <path d="M35 78h14"/><path d="M55 78h14"/><path d="M75 78h14"/><path d="M95 78h10"/>
      <path d="M35 98h14"/><path d="M55 98h14"/><path d="M75 98h14"/><path d="M95 98h10"/>
      <path d="M35 118h14"/><path d="M55 118h14"/><path d="M75 118h14"/><path d="M95 118h10"/>
      <path d="M35 138h14"/><path d="M55 138h14"/><path d="M75 138h14"/><path d="M95 138h10"/>
    </g>
    <text x="69" y="160" text-anchor="middle" font-family="Arial, Helvetica, sans-serif" font-size="13" font-weight="700">DHT22</text>
  </g>

  <g transform="translate(470 120)">
    <rect x="0" y="0" width="230" height="410" rx="8" fill="#1d2430" stroke="#0c0f14" stroke-width="3"/>
    <rect x="67" y="52" width="96" height="132" rx="4" fill="#555" stroke="#333" stroke-width="2"/>
    <path d="M80 70h12v22h18V70h18v22h18V70h12" fill="none" stroke="#777" stroke-width="5"/>
    <text x="115" y="138" text-anchor="middle" font-family="Arial, Helvetica, sans-serif" font-size="30" fill="#f1f1f1">ESP32</text>
    <circle cx="115" cy="180" r="24" fill="none" stroke="#777" stroke-width="4"/>
    <path d="M96 181c11-14 27-14 38 0M103 190c8-9 17-9 24 0M110 199c4-4 8-4 11 0" fill="none" stroke="#777" stroke-width="4" stroke-linecap="round"/>
    <rect x="85" y="324" width="60" height="42" fill="#e9e9e9" stroke="#999"/>
    <rect x="98" y="366" width="34" height="28" fill="#d8d8d8" stroke="#999"/>
    <g fill="#e7c940" stroke="#222" stroke-width="1">
      <circle cx="25" cy="62" r="5"/><circle cx="25" cy="82" r="5"/><circle cx="25" cy="102" r="5"/><circle cx="25" cy="122" r="5"/><circle cx="25" cy="142" r="5"/><circle cx="25" cy="162" r="5"/><circle cx="25" cy="182" r="5"/><circle cx="25" cy="202" r="5"/><circle cx="25" cy="222" r="5"/><circle cx="25" cy="242" r="5"/><circle cx="25" cy="262" r="5"/><circle cx="25" cy="282" r="5"/><circle cx="25" cy="302" r="5"/>
      <circle cx="205" cy="62" r="5"/><circle cx="205" cy="82" r="5"/><circle cx="205" cy="102" r="5"/><circle cx="205" cy="122" r="5"/><circle cx="205" cy="142" r="5"/><circle cx="205" cy="162" r="5"/><circle cx="205" cy="182" r="5"/><circle cx="205" cy="202" r="5"/><circle cx="205" cy="222" r="5"/><circle cx="205" cy="242" r="5"/><circle cx="205" cy="262" r="5"/><circle cx="205" cy="282" r="5"/><circle cx="205" cy="302" r="5"/>
    </g>
    <text x="47" y="78" font-family="Arial" font-size="12" fill="#fff">33</text>
    <text x="43" y="322" font-family="Arial" font-size="12" fill="#fff">GND</text>
    <text x="167" y="322" font-family="Arial" font-size="12" fill="#fff">3V3</text>
  </g>

  <path d="M228 392H282V566H522V444" fill="none" stroke="#f00" stroke-width="4" stroke-linecap="round" stroke-linejoin="round"/>
  <path d="M244 392H300V520H495V240" fill="none" stroke="#0058ff" stroke-width="4" stroke-linecap="round" stroke-linejoin="round"/>
  <path d="M264 392H330V176H585V120" fill="none" stroke="#111" stroke-width="4" stroke-linecap="round" stroke-linejoin="round"/>

  <g font-family="Arial, Helvetica, sans-serif" font-size="18" font-weight="700">
    <text x="182" y="625" fill="#f00">VCC -> 3V3</text>
    <text x="370" y="625" fill="#0058ff">DATA -> GPIO 33</text>
    <text x="610" y="625" fill="#111">GND -> GND</text>
  </g>
</svg>
